<svg width="100" height="100" viewBox="0 0 192 192" fill="none" xmlns="http://www.w3.org/2000/svg">
  <path d="M96 8c3.6 0 6.8 2.4 7.7 5.9 5.4 21.2 19.2 35 40.4 40.4 3.5.9 5.9 4.1 5.9 7.7s-2.4 6.8-5.9 7.7c-21.2 5.4-35 19.2-40.4 40.4-.9 3.5-4.1 5.9-7.7 5.9s-6.8-2.4-7.7-5.9c-5.4-21.2-19.2-35-40.4-40.4C44.4 68.8 42 65.6 42 62s2.4-6.8 5.9-7.7c21.2-5.4 35-19.2 40.4-40.4C89.2 10.4 92.4 8 96 8z" fill="currentColor"/>
  <path d="M160 88c1.8 0 3.4 1.2 3.8 2.9 2.6 10.2 9.3 16.9 19.5 19.5 1.7.4 2.9 2 2.9 3.8s-1.2 3.4-2.9 3.8c-10.2 2.6-16.9 9.3-19.5 19.5-.4 1.7-2 2.9-3.8 2.9s-3.4-1.2-3.8-2.9c-2.6-10.2-9.3-16.9-19.5-19.5-1.7-.4-2.9-2-2.9-3.8s1.2-3.4 2.9-3.8c10.2-2.6 16.9-9.3 19.5-19.5.4-1.7 2-2.9 3.8-2.9z" fill="currentColor"/>
</svg>
